<?xml version='1.0' encoding='UTF-8' standalone='no'?>
<!-- Created with Inkscape (http://www.inkscape.org/) -->
<svg xmlns="http://www.w3.org/2000/svg" gorn="0"  version="1.1" id="svg12160" height="107.9375" width="71.34375">
    <desc>
        <referenceFile>RelayModule_DFR0017__cc65612b453176597bf__pcb__5787692050f65085efd3de301f1f5367.svg</referenceFile>
    </desc>
    <g gorn="0.0"  id="copper0">
        <defs  id="defs12162"/>
        <metadata  id="metadata12165">
            <rdf:RDF xmlns:rdf="http://www.w3.org/1999/02/22-rdf-syntax-ns#">
                <cc:Work rdf:about="" xmlns:cc="http://creativecommons.org/ns#" xmlns:rdf="http://www.w3.org/1999/02/22-rdf-syntax-ns#">
                    <dc:format xmlns:dc="http://purl.org/dc/elements/1.1/">image/svg+xml</dc:format>
                    <dc:type rdf:resource="http://purl.org/dc/dcmitype/StillImage" xmlns:dc="http://purl.org/dc/elements/1.1/" xmlns:rdf="http://www.w3.org/1999/02/22-rdf-syntax-ns#"/>
                    <dc:title xmlns:dc="http://purl.org/dc/elements/1.1/"/>
                </cc:Work>
            </rdf:RDF>
        </metadata>
        <g  transform="translate(-321.46875,-566.0625)">
            <g gorn="0.0.2.0"  id="layer1">
                <g gorn="0.0.2.0.0"  id="g4655">
                    <path gorn="0.0.2.0.0.0"  d="m 335.59598,566.57647 c -7.55493,0 -13.625,6.07007 -13.625,13.625 l 0,79.6875 c 0,7.55493 6.07007,13.625 13.625,13.625 l 43.0625,0 c 7.55493,0 13.65625,-6.07007 13.65625,-13.625 l 0,-79.6875 c 0,-7.55493 -6.10132,-13.625 -13.65625,-13.625 l -43.0625,0 z m -4.96875,10.375 c 3.00046,-0.10282 5.52189,2.22674 5.625,5.21875 0.10305,2.99035 -2.22004,5.51989 -5.21875,5.625 l -0.0312,0 c -3.00046,0.10282 -5.49064,-2.25799 -5.59375,-5.25 -0.10311,-2.99201 2.21829,-5.49093 5.21875,-5.59375 z m 53.25,0 c 3.00046,-0.10282 5.49064,2.22674 5.59375,5.21875 0.10305,2.99035 -2.22004,5.51989 -5.21875,5.625 l -0.0312,0 c -3.00046,0.10282 -5.49064,-2.25799 -5.59375,-5.25 -0.10311,-2.99201 2.24954,-5.49093 5.25,-5.59375 z m -37.125,18.25 c 0.99411,0 1.78125,0.81839 1.78125,1.8125 0,0.99411 -0.78714,1.78125 -1.78125,1.78125 -0.99411,0 -1.8125,-0.78714 -1.8125,-1.78125 0,-0.99411 0.81839,-1.8125 1.8125,-1.8125 z m 9,0 c 0.99411,0 1.78125,0.81839 1.78125,1.8125 0,0.99411 -0.78714,1.78125 -1.78125,1.78125 -0.99411,0 -1.8125,-0.78714 -1.8125,-1.78125 0,-0.99411 0.81839,-1.8125 1.8125,-1.8125 z m 9,0 c 0.99411,0 1.78125,0.81839 1.78125,1.8125 0,0.99411 -0.78714,1.78125 -1.78125,1.78125 -0.99411,0 -1.8125,-0.78714 -1.8125,-1.78125 0,-0.99411 0.81839,-1.8125 1.8125,-1.8125 z" id="rect2996" style="fill:none;stroke:#ffffff;stroke-opacity:1"/>
                    <g  transform="matrix(0,1.25,1.25,0,350.31775,591.55885)">
                        <circle  r="1.584" d="m 5.9040002,11.52 c 0,0.874819 -0.709181,1.584 -1.584,1.584 -0.8748191,0 -1.584,-0.709181 -1.584,-1.584 0,-0.874819 0.7091809,-1.5839995 1.584,-1.5839995 0.874819,0 1.584,0.7091805 1.584,1.5839995 z" style="fill:none;stroke:#ffbf00;stroke-width:1.15199995" cx="4.3200002" cy="11.52"/>
                    </g>
                    <g  transform="matrix(0,1.25,1.25,0,341.3179,591.55885)">
                        <circle  r="1.584" d="m 5.9040002,11.52 c 0,0.874819 -0.709181,1.584 -1.584,1.584 -0.8748191,0 -1.584,-0.709181 -1.584,-1.584 0,-0.874819 0.7091809,-1.5839995 1.584,-1.5839995 0.874819,0 1.584,0.7091805 1.584,1.5839995 z" style="fill:none;stroke:#ffbf00;stroke-width:1.15199995" cx="4.3200002" cy="11.52"/>
                    </g>
                    <g  transform="matrix(0,1.25,1.25,0,332.31806,591.55885)">
                        <circle  r="1.584" d="m 5.9040002,11.52 c 0,0.874819 -0.709181,1.584 -1.584,1.584 -0.8748191,0 -1.584,-0.709181 -1.584,-1.584 0,-0.874819 0.7091809,-1.5839995 1.584,-1.5839995 0.874819,0 1.584,0.7091805 1.584,1.5839995 z" style="fill:none;stroke:#ffbf00;stroke-width:1.15199995" cx="4.3200002" cy="11.52"/>
                    </g>
                    <g  transform="matrix(0,1.25,1.25,0,332.08233,659.41397)">
                        <circle  r="1.584" d="m 5.9040002,11.52 c 0,0.874819 -0.709181,1.584 -1.584,1.584 -0.8748191,0 -1.584,-0.709181 -1.584,-1.584 0,-0.874819 0.7091809,-1.5839995 1.584,-1.5839995 0.874819,0 1.584,0.7091805 1.584,1.5839995 z" style="fill:none;stroke:#ffbf00;stroke-width:1.15199995" cx="4.3200002" cy="11.52"/>
                    </g>
                    <g  transform="matrix(0,1.25,1.25,0,340.92117,659.41397)">
                        <circle  r="1.584" d="m 5.9040002,11.52 c 0,0.874819 -0.709181,1.584 -1.584,1.584 -0.8748191,0 -1.584,-0.709181 -1.584,-1.584 0,-0.874819 0.7091809,-1.5839995 1.584,-1.5839995 0.874819,0 1.584,0.7091805 1.584,1.5839995 z" style="fill:none;stroke:#ffbf00;stroke-width:1.15199995" cx="4.3200002" cy="11.52"/>
                    </g>
                    <g  transform="matrix(0,1.25,1.25,0,349.75999,659.41397)">
                        <circle  r="1.584" d="m 5.9040002,11.52 c 0,0.874819 -0.709181,1.584 -1.584,1.584 -0.8748191,0 -1.584,-0.709181 -1.584,-1.584 0,-0.874819 0.7091809,-1.5839995 1.584,-1.5839995 0.874819,0 1.584,0.7091805 1.584,1.5839995 z" style="fill:none;stroke:#ffbf00;stroke-width:1.15199995" cx="4.3200002" cy="11.52"/>
                    </g>
                    <g  transform="matrix(0,1.25,1.25,0,323.24349,659.41397)">
                        <circle  r="1.584" d="m 5.9040002,11.52 c 0,0.874819 -0.709181,1.584 -1.584,1.584 -0.8748191,0 -1.584,-0.709181 -1.584,-1.584 0,-0.874819 0.7091809,-1.5839995 1.584,-1.5839995 0.874819,0 1.584,0.7091805 1.584,1.5839995 z" style="fill:none;stroke:#ffbf00;stroke-width:1.15199995" cx="4.3200002" cy="11.52"/>
                    </g>
                </g>
            </g>
        </g>
        <rect  fill="none" x="22.72215038693918" y="96.17468919251536" height="5" width="5"/>
        <rect  fill="none" x="40.80629333798177" y="28.05586577860399" height="5.34395146036627" width="5.128184571116464"/>
        <rect  fill="none" x="40.80629333798177" y="28.05586577860399" height="5.34395146036627" width="5.128184571116464"/>
        <rect  fill="none" x="22.42033075908955" y="95.93916886316828" height="5.473630697718733" width="5.475173160789865"/>
        <rect  fill="none" x="22.42033075908955" y="95.93916886316828" height="5.473630697718733" width="5.475173160789865"/>
        <rect  fill="none" x="22.90237999415734" y="28.07495499273298" height="5.610599724366267" width="5.721935932227893"/>
        <rect  fill="none" x="31.45926181083399" y="28.12586158365198" height="5.559693133447269" width="5.241035531386757"/>
        <rect  fill="none" x="40.39202487781446" y="28.16872439527228" height="5.56120204584289" width="5.360027165839625"/>
        <rect  fill="none" x="22.90237999415734" y="28.07495499273298" height="5.610599724366267" width="5.721935932227893"/>
        <rect  fill="none" x="31.45926181083399" y="28.12586158365198" height="5.559693133447269" width="5.241035531386757"/>
        <rect  fill="none" x="40.39202487781446" y="28.16872439527228" height="5.56120204584289" width="5.360027165839625"/>
        <rect  fill="none" x="25.20129424675546" y="98.60285708539934" height="0.002" width="0.002"/>
        <rect  fill="none" x="22.52128066383565" y="95.82225606247789" height="5.56120204584289" width="5.360027165839625"/>
        <rect  fill="none" x="25.20129424675546" y="98.60285708539934" height="0.002" width="0.002"/>
        <rect  fill="none" x="22.52128066383565" y="95.82225606247789" height="5.56120204584289" width="5.360027165839625"/>
        <rect  fill="none" x="22.51416261396412" y="28.08929994685005" height="5.220794274747817" width="5.268449590944186"/>
        <rect  fill="none" x="31.82400679977894" y="27.95406109371271" height="5.731080297503468" width="4.941948259681027"/>
        <rect  fill="none" x="40.46631183717221" y="28.0756400942488" height="5.421977712158224" width="5.300775293127231"/>
        <rect  fill="none" x="22.51416261396412" y="28.08929994685005" height="5.220794274747817" width="5.268449590944186"/>
        <rect  fill="none" x="31.82400679977894" y="27.95406109371271" height="5.731080297503468" width="4.941948259681027"/>
        <rect  fill="none" x="40.46631183717221" y="28.0756400942488" height="5.421977712158224" width="5.300775293127231"/>
        <rect  fill="none" x="22.51416261396412" y="28.08929994685005" height="5.220794274747817" width="5.268449590944186"/>
        <rect  fill="none" x="31.82400679977894" y="27.95406109371271" height="5.731080297503468" width="4.941948259681027"/>
        <rect  fill="none" x="40.46631183717221" y="28.0756400942488" height="5.421977712158224" width="5.300775293127231"/>
        <rect  fill="none" x="24.76295454446461" y="98.52068765478133" height="0.002" width="0.002"/>
        <rect  fill="none" x="22.11256689790099" y="95.80969879870222" height="5.421977712158224" width="5.300775293127231"/>
        <rect  fill="none" x="24.76295454446461" y="98.52068765478133" height="0.002" width="0.002"/>
        <rect  fill="none" x="22.11256689790099" y="95.80969879870222" height="5.421977712158224" width="5.300775293127231"/>
        <rect  fill="none" x="25.06637963109822" y="98.82181677472299" height="0.002" width="0.002"/>
        <rect  fill="none" x="43.27968343505893" y="30.80488702054815" height="0.002" width="0.002"/>
        <rect  fill="none" x="22.48479783955614" y="28.0714732409306" height="5.74801696052316" width="5.570830973705284"/>
        <rect  fill="none" x="31.66065242111304" y="28.18768363558354" height="5.040626678520795" width="5.14443872491978"/>
        <rect  fill="none" x="40.62929578849531" y="28.09389816446904" height="5.421977712158224" width="5.300775293127231"/>
        <rect  fill="none" x="22.4159919845346" y="96.11082791864388" height="5.421977712158224" width="5.300775293127231"/>
        <rect  fill="none" x="25.06637963109822" y="98.82181677472299" height="0.002" width="0.002"/>
        <rect  fill="none" x="43.27968343505893" y="30.80488702054815" height="0.002" width="0.002"/>
        <rect  fill="none" x="22.48479783955614" y="28.0714732409306" height="5.74801696052316" width="5.570830973705284"/>
        <rect  fill="none" x="31.66065242111304" y="28.18768363558354" height="5.040626678520795" width="5.14443872491978"/>
        <rect  fill="none" x="40.62929578849531" y="28.09389816446904" height="5.421977712158224" width="5.300775293127231"/>
        <rect  fill="none" x="22.4159919845346" y="96.11082791864388" height="5.421977712158224" width="5.300775293127231"/>
        <rect  fill="none" x="25.30131764868116" y="98.58687875714001" height="0.002" width="0.002"/>
        <rect  fill="none" x="43.27407599377614" y="30.68979167567018" height="0.002" width="0.002"/>
        <rect gorn="0.0.47"  fill="none" id="connector3" x="40.62368834721252" y="27.97880281959107" height="5.421977712158224" width="5.300775293127231"/>
        <rect gorn="0.0.48"  fill="none" id="connector5" x="22.65093000211755" y="27.97880281959107" height="5.421977712158224" width="5.300775293127231"/>
        <rect gorn="0.0.51"  fill="none" id="connector4" x="31.62368834721252" y="27.97880281959107" height="5.421977712158224" width="5.300775293127231"/>
        <rect gorn="0.0.52"  fill="none" id="connector1" x="22.65093000211755" y="95.8758899010609" height="5.421977712158224" width="5.300775293127231"/>
        <rect gorn="0.0.3"  fill="none" id="connector0" x="13.76855073088018" y="96.30353301832957" height="5" width="5"/>
        <rect gorn="0.0.5"  fill="none" id="connector2" x="40.17501933253234" y="96.1746909990286" height="5" width="5"/>
   </g>
</svg>
